<svg width="6" height="6" viewBox="0 0 6 6" fill="none" xmlns="http://www.w3.org/2000/svg">
<path fill-rule="evenodd" clip-rule="evenodd" d="M3.05901 2.82608C3.32139 2.45163 3.73053 1.65105 3.73053 1.08126C3.73053 0.445569 3.3832 0 2.87799 0C2.30963 0 1.99387 0.453431 1.99387 1.08126C1.99387 1.53767 2.38603 2.36275 2.64869 2.77927C2.26365 2.50327 1.44609 2.06883 1.00843 2.06883C0.422891 2.06883 0 2.40738 0 3.01679C0 3.55849 0.415559 3.9309 1.00843 3.9309C1.56683 3.9309 2.38076 3.4356 2.71152 3.15358L1.92974 6.00001C2.67474 5.71695 3.14775 5.71148 3.85936 6.00001L3.01819 3.15137C3.32658 3.42502 4.14546 3.9309 4.71612 3.9309C5.309 3.9309 5.72456 3.55849 5.72456 3.01679C5.72456 2.40738 5.30167 2.06883 4.71612 2.06883C4.26162 2.06883 3.41511 2.54819 3.05901 2.82608Z" fill="black"/>
</svg>
