<svg width="7" height="6" viewBox="0 0 7 6" fill="none" xmlns="http://www.w3.org/2000/svg">
<path fill-rule="evenodd" clip-rule="evenodd" d="M3.52144 5.99283C3.41073 5.90911 3.29902 5.82519 3.18695 5.741C1.64827 4.58505 0.0410603 3.37762 -2.10256e-08 1.94109C0.0441363 0.485181 1.05927 -0.00012207 1.942 -0.00012207C2.4587 -0.00012207 3.05039 0.287214 3.49094 0.768815C3.88472 0.287214 4.42642 -0.00012207 4.94312 -0.00012207C5.82585 -0.00012207 6.92925 0.48518 6.97339 1.94109C6.93077 3.43199 5.28351 4.67612 3.7001 5.87203C3.64674 5.91232 3.59346 5.95256 3.54031 5.99276C3.53719 5.99518 3.53405 5.99759 3.5309 5.99999C3.53088 5.99997 3.53085 5.99995 3.53083 5.99993C3.53081 5.99995 3.53078 5.99997 3.53076 5.99999C3.52764 5.99761 3.52453 5.99523 3.52144 5.99283Z" fill="#FF4545"/>
</svg>
