<svg width="7" height="6" viewBox="0 0 7 6" fill="none" xmlns="http://www.w3.org/2000/svg">
<path fill-rule="evenodd" clip-rule="evenodd" d="M3.45195 0.00704593C3.56266 0.0907628 3.67437 0.174685 3.78644 0.25888C5.32512 1.41482 6.93233 2.62226 6.97339 4.05879C6.92925 5.5147 5.91412 6 5.03139 6C4.51469 6 3.923 5.71266 3.48245 5.23106C3.08867 5.71266 2.54697 6 2.03027 6C1.14754 6 0.0441366 5.5147 1.80544e-07 4.05879C0.0426148 2.56789 1.68988 1.32376 3.27329 0.127852C3.32665 0.0875546 3.37993 0.0473129 3.43307 0.00711793C3.4362 0.00469894 3.43933 0.002289 3.44249 -0.000111393C3.44251 -9.32734e-05 3.44253 -7.46767e-05 3.44256 -5.65569e-05C3.44258 -7.46767e-05 3.44261 -9.27965e-05 3.44263 -0.000110916C3.44575 0.00226564 3.44886 0.00465126 3.45195 0.00704593Z" fill="black"/>
</svg>
